<svg xmlns="http://www.w3.org/2000/svg" viewBox="0 0 265.79 265.79"><defs><style>.cls-1{fill:#264050;}.cls-2{fill:#ffc113;}.cls-3{fill:none;stroke:#ffc113;stroke-miterlimit:10;stroke-width:0.5px;}</style></defs><g id="Layer_2" data-name="Layer 2"><g id="Layer_1-2" data-name="Layer 1"><path class="cls-1" d="M49.72,0H180.85a84.94,84.94,0,0,1,84.94,84.94V216.07a49.72,49.72,0,0,1-49.72,49.72H49.72A49.72,49.72,0,0,1,0,216.07V49.72A49.72,49.72,0,0,1,49.72,0Z"/><circle class="cls-2" cx="138.66" cy="202.57" r="8.98"/><path class="cls-2" d="M132.9,36.55a96.39,96.39,0,0,0-91.78,67l35.62,4.3a15.5,15.5,0,0,1,5.88-11.71l36.14-28.35a15.6,15.6,0,0,1,21.89,2.64l49.63,63.27a15.59,15.59,0,0,1-2.64,21.89L151.5,183.92a15.59,15.59,0,0,1-21.89-2.65L80.24,118.35l-41.7-5A96.36,96.36,0,1,0,132.9,36.55ZM151.27,204.1A12.7,12.7,0,1,1,140.18,190,12.7,12.7,0,0,1,151.27,204.1Z"/><rect class="cls-3" x="142.8" y="151.55" width="30.36" height="9.64" rx="1.79" transform="translate(-62.84 130.85) rotate(-38.11)"/></g></g></svg>