<svg width="328" height="328" viewBox="0 0 328 328" fill="none" xmlns="http://www.w3.org/2000/svg">
<path d="M266.579 0H60.6337C34.023 0 12.4243 21.4233 12.1229 47.9664L0.046318 186.793C-0.533724 193.461 4.40148 199.337 11.0694 199.917C17.7373 200.497 23.613 195.562 24.193 188.894L36.312 49.5795L36.3575 48.5292C36.3575 35.1102 47.2242 24.2379 60.6337 24.2379H266.579C279.988 24.2379 290.855 35.1086 290.855 48.5292L290.901 49.5795L303.02 188.894C303.6 195.562 309.476 200.497 316.143 199.917C322.811 199.337 327.747 193.461 327.167 186.793L315.09 47.9664C314.788 21.4206 293.188 0 266.579 0Z" fill="#F0CE55"/>
<path fill-rule="evenodd" clip-rule="evenodd" d="M303 164H327V206H303V164Z" fill="#595959"/>
<path fill-rule="evenodd" clip-rule="evenodd" d="M0.000732422 163.606H24.2386V206.022H0.000732422V163.606Z" fill="#595959"/>
<path d="M66.6549 115.13H60.5954C40.5161 115.13 24.2386 131.407 24.2386 151.487V224.2C24.2386 244.28 40.5161 260.557 60.5954 260.557H66.6549C86.7342 260.557 103.012 244.28 103.012 224.2V151.487C103.012 131.407 86.7342 115.13 66.6549 115.13Z" fill="#F0CE55"/>
<path d="M266.617 115.13H260.558C240.479 115.13 224.201 131.407 224.201 151.487V224.2C224.201 244.28 240.479 260.557 260.558 260.557H266.617C286.697 260.557 302.974 244.28 302.974 224.2V151.487C302.974 131.407 286.697 115.13 266.617 115.13Z" fill="#F0CE55"/>
<path d="M13.6812 203.419V262.085C13.6812 288.859 35.3987 310.563 62.1225 310.563H148.386" stroke="#EFC120" stroke-width="12.1189" stroke-linecap="round"/>
<path d="M151.487 290.854H121.19C111.15 290.854 103.012 298.993 103.012 309.033C103.012 319.073 111.15 327.211 121.19 327.211H151.487C161.527 327.211 169.666 319.073 169.666 309.033C169.666 298.993 161.527 290.854 151.487 290.854Z" fill="#595959"/>
</svg>
